<svg width="1083" height="667" viewBox="0 0 1083 667" fill="none" xmlns="http://www.w3.org/2000/svg">
<rect width="1083" height="667" fill="#F7931A"/>
<path d="M123.963 311V92.8182H268.423V130.851H170.092V182.839H258.835V220.872H170.092V311H123.963ZM345.581 92.8182V311H299.451V92.8182H345.581ZM383.533 311V92.8182H469.613C486.09 92.8182 500.153 95.7656 511.8 101.661C523.519 107.484 532.433 115.759 538.54 126.483C544.719 137.136 547.809 149.672 547.809 164.089C547.809 178.578 544.684 191.043 538.434 201.483C532.184 211.852 523.129 219.807 511.268 225.347C499.478 230.886 485.202 233.656 468.441 233.656H410.806V196.582H460.984C469.79 196.582 477.106 195.375 482.93 192.96C488.754 190.545 493.086 186.923 495.927 182.094C498.839 177.264 500.295 171.263 500.295 164.089C500.295 156.845 498.839 150.737 495.927 145.766C493.086 140.794 488.718 137.03 482.823 134.473C476.999 131.845 469.648 130.531 460.771 130.531H429.663V311H383.533ZM501.36 211.71L555.586 311H504.663L451.609 211.71H501.36ZM618.015 311H568.583L643.903 92.8182H703.349L778.562 311H729.13L674.478 142.676H672.773L618.015 311ZM614.925 225.24H731.687V261.249H614.925V225.24ZM918.201 155.567C917.349 146.973 913.691 140.297 907.228 135.538C900.765 130.78 891.994 128.401 880.914 128.401C873.386 128.401 867.029 129.466 861.845 131.597C856.66 133.656 852.683 136.533 849.913 140.226C847.214 143.919 845.865 148.109 845.865 152.797C845.723 156.703 846.539 160.112 848.315 163.024C850.162 165.936 852.683 168.457 855.879 170.588C859.075 172.648 862.768 174.459 866.958 176.021C871.149 177.513 875.623 178.791 880.382 179.857L899.984 184.544C909.501 186.675 918.237 189.516 926.191 193.067C934.146 196.618 941.035 200.986 946.859 206.17C952.683 211.355 957.193 217.463 960.389 224.494C963.656 231.526 965.325 239.587 965.396 248.678C965.325 262.03 961.916 273.607 955.169 283.408C948.493 293.138 938.833 300.702 926.191 306.099C913.62 311.426 898.457 314.089 880.701 314.089C863.088 314.089 847.747 311.391 834.679 305.993C821.681 300.595 811.525 292.605 804.21 282.023C796.966 271.369 793.166 258.195 792.811 242.499H837.449C837.946 249.814 840.041 255.922 843.734 260.822C847.498 265.652 852.505 269.31 858.755 271.795C865.076 274.21 872.214 275.418 880.169 275.418C887.981 275.418 894.764 274.281 900.517 272.009C906.341 269.736 910.85 266.575 914.047 262.527C917.243 258.479 918.841 253.827 918.841 248.571C918.841 243.67 917.385 239.551 914.473 236.213C911.632 232.875 907.441 230.034 901.902 227.69C896.433 225.347 889.721 223.216 881.767 221.298L858.01 215.332C839.615 210.858 825.091 203.862 814.437 194.345C803.784 184.828 798.493 172.009 798.564 155.886C798.493 142.676 802.008 131.135 809.11 121.263C816.284 111.391 826.12 103.685 838.62 98.1449C851.12 92.6051 865.325 89.8352 881.234 89.8352C897.427 89.8352 911.561 92.6051 923.635 98.1449C935.779 103.685 945.226 111.391 951.973 121.263C958.72 131.135 962.2 142.57 962.413 155.567H918.201Z" fill="black"/>
<path d="M542.995 354.818V573H496.865V354.818H542.995ZM699.307 417.567C698.455 408.973 694.797 402.297 688.334 397.538C681.871 392.78 673.099 390.401 662.02 390.401C654.491 390.401 648.135 391.466 642.95 393.597C637.766 395.656 633.788 398.533 631.018 402.226C628.32 405.919 626.97 410.109 626.97 414.797C626.828 418.703 627.645 422.112 629.42 425.024C631.267 427.936 633.788 430.457 636.984 432.588C640.18 434.648 643.874 436.459 648.064 438.021C652.254 439.513 656.729 440.791 661.487 441.857L681.089 446.544C690.607 448.675 699.342 451.516 707.297 455.067C715.251 458.618 722.141 462.986 727.964 468.17C733.788 473.355 738.298 479.463 741.494 486.494C744.761 493.526 746.43 501.587 746.501 510.678C746.43 524.03 743.021 535.607 736.274 545.408C729.598 555.138 719.939 562.702 707.297 568.099C694.726 573.426 679.563 576.089 661.807 576.089C644.193 576.089 628.852 573.391 615.784 567.993C602.787 562.595 592.631 554.605 585.315 544.023C578.071 533.369 574.271 520.195 573.916 504.499H618.554C619.051 511.814 621.146 517.922 624.839 522.822C628.604 527.652 633.611 531.31 639.861 533.795C646.182 536.21 653.32 537.418 661.274 537.418C669.087 537.418 675.869 536.281 681.622 534.009C687.446 531.736 691.956 528.575 695.152 524.527C698.348 520.479 699.946 515.827 699.946 510.571C699.946 505.67 698.49 501.551 695.578 498.213C692.737 494.875 688.547 492.034 683.007 489.69C677.538 487.347 670.827 485.216 662.872 483.298L639.115 477.332C620.72 472.858 606.196 465.862 595.543 456.345C584.889 446.828 579.598 434.009 579.669 417.886C579.598 404.676 583.114 393.135 590.216 383.263C597.389 373.391 607.226 365.685 619.726 360.145C632.226 354.605 646.43 351.835 662.339 351.835C678.533 351.835 692.666 354.605 704.74 360.145C716.885 365.685 726.331 373.391 733.078 383.263C739.825 393.135 743.305 404.57 743.518 417.567H699.307ZM810.156 573H760.724L836.043 354.818H895.489L970.702 573H921.271L866.619 404.676H864.914L810.156 573ZM807.066 487.24H923.827V523.249H807.066V487.24Z" fill="black"/>
</svg>
